<?xml version="1.0" encoding="UTF-8"?>
<svg id="uuid-9d38f052-a06e-4fcd-9277-044c012bef64" data-name="Layer 2" xmlns="http://www.w3.org/2000/svg" width="284.2" height="56.4" viewBox="0 0 284.2 56.4">
  <g id="uuid-3d59863a-05aa-4e81-b808-b08caac48ca3" data-name="Capa 1">
    <g>
      <path d="M65.7,55.9V20.2c0-7-5.7-12.5-12.6-12.5s-12.6,5.7-12.6,12.6V55.9h-7.6V20.2c0-7-5.7-12.5-12.6-12.5S7.6,13.3,7.6,20.3V55.9H0V20.2C0,8.9,9,0,20.2,0s12.7,3.3,16.5,8.4C40.3,3.3,46.3,0,53.1,0c11.2,0,20.3,9,20.3,20.3V55.9h-7.6Z"/>
      <path d="M131.9,55.9h-7.6v-8.3c-5.1,5.4-12.4,8.8-20.5,8.8-15.5,0-28.2-12.6-28.2-28.2S88.3,.2,103.8,.2s28.1,12.5,28.1,28.1v27.7Zm-7.6-27.7c0-11.3-9.2-20.5-20.5-20.5s-20.6,9.2-20.6,20.5,9.3,20.6,20.6,20.6,20.5-9.3,20.5-20.6"/>
      <path d="M190.4,55.9h-7.6V28.5c0-11.3-9.2-20.6-20.5-20.6s-20.5,9.3-20.5,20.6v27.5h-7.6V28.3c0-15.5,12.5-28,28.1-28s28.1,12.6,28.1,28.2v27.5Z"/>
      <path d="M284.2,55.9h-7.6v-8.3c-5.1,5.4-12.4,8.8-20.5,8.8-15.5,0-28.2-12.6-28.2-28.2S240.6,.2,256.1,.2s28.1,12.5,28.1,28.1v27.7Zm-7.6-27.7c0-11.3-9.2-20.5-20.5-20.5s-20.6,9.2-20.6,20.5,9.3,20.6,20.6,20.6,20.5-9.3,20.5-20.6"/>
      <path d="M231.7,.2c-12.7,0-23.1,10.4-23.1,23.1v9.4c0,4.2-1.6,8.1-4.6,11.1-3,3-6.9,4.6-11.1,4.7h-.6v7.4h.6c12.7,0,23.1-10.4,23.1-23.1v-9.4c0-4.2,1.6-8.1,4.6-11.1,3-3,6.9-4.6,11.1-4.7h.6V.2h-.6Z"/>
    </g>
  </g>
</svg>